<mxfile host="app.diagrams.net" agent="Mozilla/5.0 (Windows NT 10.0; Win64; x64) AppleWebKit/537.36 (KHTML, like Gecko) Chrome/137.0.0.0 Safari/537.36" version="27.1.3">
  <diagram name="Page-1" id="NxKS7OdARCtUP5W1ucMz">
    <mxGraphModel dx="1261" dy="813" grid="1" gridSize="10" guides="1" tooltips="1" connect="1" arrows="1" fold="1" page="1" pageScale="1" pageWidth="850" pageHeight="1100" math="0" shadow="0">
      <root>
        <mxCell id="0" />
        <mxCell id="1" parent="0" />
        <mxCell id="NF9wiF6KTi5IqM5aR7Bt-3" value="" style="edgeStyle=orthogonalEdgeStyle;rounded=0;orthogonalLoop=1;jettySize=auto;html=1;" parent="1" source="NF9wiF6KTi5IqM5aR7Bt-1" target="NF9wiF6KTi5IqM5aR7Bt-2" edge="1">
          <mxGeometry relative="1" as="geometry" />
        </mxCell>
        <mxCell id="NF9wiF6KTi5IqM5aR7Bt-1" value="&lt;font style=&quot;font-size: 16px;&quot;&gt;Users&lt;/font&gt;" style="rounded=1;whiteSpace=wrap;html=1;" parent="1" vertex="1">
          <mxGeometry x="210" y="120" width="120" height="60" as="geometry" />
        </mxCell>
        <mxCell id="NF9wiF6KTi5IqM5aR7Bt-5" value="" style="edgeStyle=orthogonalEdgeStyle;rounded=0;orthogonalLoop=1;jettySize=auto;html=1;" parent="1" source="NF9wiF6KTi5IqM5aR7Bt-2" target="NF9wiF6KTi5IqM5aR7Bt-4" edge="1">
          <mxGeometry relative="1" as="geometry" />
        </mxCell>
        <mxCell id="VeIbbYrM8EEQSwTFC7OT-22" style="edgeStyle=orthogonalEdgeStyle;rounded=0;orthogonalLoop=1;jettySize=auto;html=1;entryX=1;entryY=0.5;entryDx=0;entryDy=0;" edge="1" parent="1" source="NF9wiF6KTi5IqM5aR7Bt-2" target="NF9wiF6KTi5IqM5aR7Bt-1">
          <mxGeometry relative="1" as="geometry">
            <Array as="points">
              <mxPoint x="350" y="260" />
              <mxPoint x="350" y="150" />
            </Array>
          </mxGeometry>
        </mxCell>
        <mxCell id="NF9wiF6KTi5IqM5aR7Bt-2" value="&lt;font style=&quot;font-size: 16px;&quot;&gt;Load&amp;nbsp;&lt;/font&gt;&lt;div&gt;&lt;font style=&quot;font-size: 16px;&quot;&gt;Balancer&lt;/font&gt;&lt;/div&gt;" style="rounded=1;whiteSpace=wrap;html=1;" parent="1" vertex="1">
          <mxGeometry x="210" y="230" width="120" height="60" as="geometry" />
        </mxCell>
        <mxCell id="NF9wiF6KTi5IqM5aR7Bt-7" value="" style="edgeStyle=orthogonalEdgeStyle;rounded=0;orthogonalLoop=1;jettySize=auto;html=1;" parent="1" source="NF9wiF6KTi5IqM5aR7Bt-4" target="NF9wiF6KTi5IqM5aR7Bt-6" edge="1">
          <mxGeometry relative="1" as="geometry" />
        </mxCell>
        <mxCell id="VeIbbYrM8EEQSwTFC7OT-21" style="edgeStyle=orthogonalEdgeStyle;rounded=0;orthogonalLoop=1;jettySize=auto;html=1;exitX=0.25;exitY=0;exitDx=0;exitDy=0;entryX=0;entryY=0.5;entryDx=0;entryDy=0;" edge="1" parent="1" source="NF9wiF6KTi5IqM5aR7Bt-4" target="NF9wiF6KTi5IqM5aR7Bt-2">
          <mxGeometry relative="1" as="geometry">
            <Array as="points">
              <mxPoint x="158" y="260" />
            </Array>
          </mxGeometry>
        </mxCell>
        <mxCell id="NF9wiF6KTi5IqM5aR7Bt-4" value="&lt;font style=&quot;font-size: 16px;&quot;&gt;Virtual Machine Scale Set&lt;/font&gt;" style="rounded=1;whiteSpace=wrap;html=1;" parent="1" vertex="1">
          <mxGeometry x="45" y="330" width="450" height="60" as="geometry" />
        </mxCell>
        <mxCell id="VeIbbYrM8EEQSwTFC7OT-8" style="edgeStyle=orthogonalEdgeStyle;rounded=0;orthogonalLoop=1;jettySize=auto;html=1;exitX=0.5;exitY=1;exitDx=0;exitDy=0;entryX=0.5;entryY=0;entryDx=0;entryDy=0;" edge="1" parent="1" source="NF9wiF6KTi5IqM5aR7Bt-6" target="VeIbbYrM8EEQSwTFC7OT-7">
          <mxGeometry relative="1" as="geometry" />
        </mxCell>
        <mxCell id="VeIbbYrM8EEQSwTFC7OT-9" style="edgeStyle=orthogonalEdgeStyle;rounded=0;orthogonalLoop=1;jettySize=auto;html=1;exitX=0.5;exitY=1;exitDx=0;exitDy=0;" edge="1" parent="1" source="NF9wiF6KTi5IqM5aR7Bt-6" target="VeIbbYrM8EEQSwTFC7OT-3">
          <mxGeometry relative="1" as="geometry" />
        </mxCell>
        <mxCell id="VeIbbYrM8EEQSwTFC7OT-10" style="edgeStyle=orthogonalEdgeStyle;rounded=0;orthogonalLoop=1;jettySize=auto;html=1;exitX=0.5;exitY=1;exitDx=0;exitDy=0;" edge="1" parent="1" source="NF9wiF6KTi5IqM5aR7Bt-6" target="VeIbbYrM8EEQSwTFC7OT-4">
          <mxGeometry relative="1" as="geometry" />
        </mxCell>
        <mxCell id="NF9wiF6KTi5IqM5aR7Bt-6" value="&lt;font style=&quot;font-size: 16px;&quot;&gt;Monitor&lt;/font&gt;" style="rounded=1;whiteSpace=wrap;html=1;" parent="1" vertex="1">
          <mxGeometry x="210" y="440" width="120" height="60" as="geometry" />
        </mxCell>
        <mxCell id="VeIbbYrM8EEQSwTFC7OT-18" style="edgeStyle=orthogonalEdgeStyle;rounded=0;orthogonalLoop=1;jettySize=auto;html=1;exitX=0.5;exitY=1;exitDx=0;exitDy=0;entryX=0.5;entryY=0;entryDx=0;entryDy=0;" edge="1" parent="1" source="VeIbbYrM8EEQSwTFC7OT-3" target="VeIbbYrM8EEQSwTFC7OT-12">
          <mxGeometry relative="1" as="geometry" />
        </mxCell>
        <mxCell id="VeIbbYrM8EEQSwTFC7OT-3" value="&lt;span style=&quot;font-size: 16px;&quot;&gt;Rules&lt;/span&gt;" style="rounded=1;whiteSpace=wrap;html=1;" vertex="1" parent="1">
          <mxGeometry x="210" y="580" width="120" height="60" as="geometry" />
        </mxCell>
        <mxCell id="VeIbbYrM8EEQSwTFC7OT-19" style="edgeStyle=orthogonalEdgeStyle;rounded=0;orthogonalLoop=1;jettySize=auto;html=1;exitX=0.5;exitY=1;exitDx=0;exitDy=0;entryX=0.5;entryY=0;entryDx=0;entryDy=0;" edge="1" parent="1" source="VeIbbYrM8EEQSwTFC7OT-4" target="VeIbbYrM8EEQSwTFC7OT-12">
          <mxGeometry relative="1" as="geometry" />
        </mxCell>
        <mxCell id="VeIbbYrM8EEQSwTFC7OT-4" value="&lt;font style=&quot;font-size: 16px;&quot;&gt;ML Model&lt;/font&gt;" style="rounded=1;whiteSpace=wrap;html=1;" vertex="1" parent="1">
          <mxGeometry x="400" y="580" width="120" height="60" as="geometry" />
        </mxCell>
        <mxCell id="VeIbbYrM8EEQSwTFC7OT-13" style="edgeStyle=orthogonalEdgeStyle;rounded=0;orthogonalLoop=1;jettySize=auto;html=1;exitX=0.5;exitY=1;exitDx=0;exitDy=0;entryX=0;entryY=0.5;entryDx=0;entryDy=0;" edge="1" parent="1" source="VeIbbYrM8EEQSwTFC7OT-7" target="VeIbbYrM8EEQSwTFC7OT-12">
          <mxGeometry relative="1" as="geometry" />
        </mxCell>
        <mxCell id="VeIbbYrM8EEQSwTFC7OT-7" value="&lt;font style=&quot;font-size: 16px;&quot;&gt;Mo&#39;s&amp;nbsp;&lt;/font&gt;&lt;div&gt;&lt;font style=&quot;font-size: 16px;&quot;&gt;Aggregator&lt;/font&gt;&lt;/div&gt;" style="rounded=1;whiteSpace=wrap;html=1;fillColor=#f5f5f5;fontColor=#333333;strokeColor=#666666;" vertex="1" parent="1">
          <mxGeometry x="20" y="580" width="120" height="60" as="geometry" />
        </mxCell>
        <mxCell id="VeIbbYrM8EEQSwTFC7OT-17" style="edgeStyle=orthogonalEdgeStyle;rounded=0;orthogonalLoop=1;jettySize=auto;html=1;exitX=1;exitY=0.5;exitDx=0;exitDy=0;entryX=1;entryY=0.5;entryDx=0;entryDy=0;" edge="1" parent="1" source="VeIbbYrM8EEQSwTFC7OT-12" target="NF9wiF6KTi5IqM5aR7Bt-4">
          <mxGeometry relative="1" as="geometry" />
        </mxCell>
        <mxCell id="VeIbbYrM8EEQSwTFC7OT-12" value="&lt;font style=&quot;font-size: 16px;&quot;&gt;Resource Manager&lt;/font&gt;" style="rounded=1;whiteSpace=wrap;html=1;" vertex="1" parent="1">
          <mxGeometry x="210" y="700" width="330" height="60" as="geometry" />
        </mxCell>
      </root>
    </mxGraphModel>
  </diagram>
</mxfile>
